# xmcd
#
# Track frame offsets:
#	150
#	15031
#	30277
#	43656
#	55744
#	70383
#	86820
#	104625
#	120026
#	129968
#	152678
#	166774
#	183767
#	203513
#	219449
#	238623
#	254343
#
# Disc length: 3546 seconds
#
# Revision: 0
# Processed by: cddbd v1.4PL0 Copyright (c) Steve Scherf et al.
# Submitted via: dBpowerAMP V4.0
#
DISCID=ca0dd811
DTITLE=Chris LeDoux - Boxed Set - Disc 2
DYEAR=1900
DGENRE=
TTITLE0=It Ain't The Years, It's The Miles
TTITLE1=Melodies And Memories
TTITLE2=A Cowboy's Got To Ride
TTITLE3=I Can't Ride The Bronco's Anymore
TTITLE4=Cowboy Songs
TTITLE5=Running Through The Rain
TTITLE6=I Believe In America
TTITLE7=Rainbow Rider
TTITLE8=Just Enough Money Honey
TTITLE9=Johnson County War
TTITLE10=Hard Times
TTITLE11=The Lady Is Dancing With Me
TTITLE12=Song Of The Yukon Rose
TTITLE13=Blue Bonnet Blues
TTITLE14=County Fair
TTITLE15=This Cowboy's Hat
TTITLE16=Riding For A Fall
EXTD=
EXTT0=
EXTT1=
EXTT2=
EXTT3=
EXTT4=
EXTT5=
EXTT6=
EXTT7=
EXTT8=
EXTT9=
EXTT10=
EXTT11=
EXTT12=
EXTT13=
EXTT14=
EXTT15=
EXTT16=
PLAYORDER=
